<svg
    width="350"
    height="350"
    viewBox="0 0 350 350"
    fill="none"
    xmlns="http://www.w3.org/2000/svg"
>
    <g clip-path="url(#clip0_1_8)">
        <rect width="350" height="350" rx="175" fill="#dad8c8" />
        
            <path
                d="M437.92 -87.7153V437.285H-87.0798L437.92 -87.7153Z"
                fill="#1a1c2c"
                class="rotate"
            />
            
        <g style="mix-blend-mode: difference">
            <path
                d="M60 237.297V112.703H114.017C123.305 112.703 131.432 114.529 138.398 118.179C145.364 121.829 150.782 126.959 154.652 133.57C158.522 140.181 160.457 147.907 160.457 156.749C160.457 165.672 158.461 173.398 154.469 179.928C150.517 186.458 144.957 191.487 137.787 195.015C130.658 198.544 122.327 200.308 112.795 200.308H80.5313V174.027H105.951C109.943 174.027 113.345 173.337 116.156 171.958C119.007 170.539 121.187 168.531 122.694 165.935C124.242 163.34 125.016 160.278 125.016 156.749C125.016 153.18 124.242 150.138 122.694 147.624C121.187 145.068 119.007 143.122 116.156 141.783C113.345 140.404 109.943 139.715 105.951 139.715H93.9745V237.297H60Z"
                fill="#f4f4f4"
            />
            <path
                d="M254.192 153.829C253.663 151.679 252.828 149.793 251.687 148.171C250.546 146.508 249.121 145.109 247.41 143.973C245.739 142.797 243.784 141.925 241.544 141.357C239.344 140.749 236.92 140.445 234.272 140.445C228.569 140.445 223.701 141.804 219.668 144.521C215.676 147.238 212.62 151.152 210.502 156.262C208.425 161.373 207.386 167.537 207.386 174.757C207.386 182.057 208.384 188.303 210.38 193.494C212.376 198.686 215.35 202.66 219.301 205.418C223.253 208.176 228.162 209.555 234.028 209.555C239.201 209.555 243.499 208.805 246.921 207.304C250.383 205.804 252.97 203.674 254.681 200.916C256.392 198.158 257.248 194.914 257.248 191.183L263.114 191.791H234.516V167.7H290V184.977C290 196.333 287.576 206.047 282.728 214.118C277.922 222.148 271.281 228.313 262.808 232.612C254.376 236.871 244.701 239 233.783 239C221.603 239 210.909 236.425 201.703 231.274C192.496 226.123 185.306 218.782 180.133 209.251C175 199.72 172.434 188.384 172.434 175.243C172.434 164.942 174.002 155.816 177.139 147.867C180.316 139.918 184.716 133.205 190.337 127.73C195.959 122.214 202.457 118.057 209.83 115.259C217.203 112.42 225.106 111 233.539 111C240.953 111 247.837 112.055 254.192 114.164C260.588 116.232 266.23 119.193 271.118 123.046C276.048 126.858 280.019 131.38 283.034 136.612C286.049 141.844 287.882 147.583 288.533 153.829H254.192Z"
                fill="#f4f4f4"
            />
        </g>
    </g>
    <defs>
        <clipPath id="clip0_1_8">
            <rect width="350" height="350" rx="175" fill="#f4f4f4" />
        </clipPath>
    </defs>
    <style>
        .rotate {
            animation: rotate 5s normal linear infinite;
            transform-origin: center center;
            transform-box: fill-box;
        }
        @keyframes rotate {
            0% {
                transform: rotate3d(0, 0, 1, 0deg);
            }
            50% {
                transform: rotate3d(0, 0, 1, 180deg);
            }
            100% {
                transform: rotate3d(0, 0, 1, 360deg);
            }
        }
    </style>
</svg>
